<svg width="640" height="480" xmlns="http://www.w3.org/2000/svg" xmlns:svg="http://www.w3.org/2000/svg">
 <!-- Created with SVG-edit - http://svg-edit.googlecode.com/ -->
 <g>
  <line stroke="#000000" id="svg_1" y2="155" x2="240" y1="284" x1="208" stroke-width="5" fill="none"/>
  <path d="m238,153c-1,0 -1.930359,0.392944 -2.714661,-0.085327c-0.803635,-0.490067 -1.385345,-0.914673 -2.285339,-0.914673c-0.800003,0 -1.699997,0 -2.600006,0c-0.899994,0 -1.799988,-0.000671 -2.699997,0c-0.898666,0.000671 -1.485199,0.347244 -1.921494,1.100006c-0.455795,0.786423 -1.075546,1.497391 -1.9785,1.814667c-0.852783,0.299637 -1.548889,0.369263 -2.0215,1.185333c-0.386017,0.666534 -1.189163,1.310654 -1.663834,1.785324c-0.767334,0.767334 -1.294754,1.283951 -1.947998,1.947998c-0.63028,0.640701 -0.872238,1.740601 -1.602676,2.130676c-0.766769,0.40947 -1.733582,0.088654 -2.584824,0.015167c-0.986298,-0.085144 -1.756317,-0.436996 -2.493835,-0.695175c-0.93013,-0.325607 -1.494431,-0.882614 -2.189835,-1.33667c-0.757889,-0.494858 -1.186218,-1.286423 -1.72084,-1.921997c-0.546204,-0.649338 -1.210541,-1.084808 -1.658661,-1.82666c-0.426041,-0.705307 -1.118698,-1.395981 -1.716003,-1.998672c-0.59201,-0.597336 -0.980011,-1.496765 -1.552658,-2.147324c-0.518326,-0.588837 -1.105072,-0.898132 -1.731339,-0.33667c-0.651062,0.583694 -1.146317,1.244308 -1.563339,1.983994c-0.420044,0.745026 -1.014465,1.343903 -1.405334,2.004501c-0.464752,0.785446 -0.811813,1.60405 -0.948654,2.495499c-0.140579,0.915787 -0.808548,1.454086 -0.988007,2.400009c-0.16777,0.884277 -0.010666,1.799988 -0.010666,2.699997c0,0.901337 0,1.866669 0,2.52533c0,1.007996 0.18248,1.89621 -0.035995,2.774673c-0.217056,0.872711 -0.78685,1.568832 -0.964005,2.399994c-0.209152,0.981216 -0.66185,1.543625 -1.295502,2.304504c-0.458374,0.5504 -0.536392,1.558853 -0.87117,2.528824c-0.237122,0.687027 -0.804733,1.465317 -0.833328,2.366669c-0.028534,0.899551 0,1.800003 0,2.557175c0,1.068161 0.173309,1.778366 -0.020828,2.722c-0.178406,0.867203 -0.870255,1.619232 -0.979172,2.520828c-0.096497,0.798737 -0.746948,1.53717 -0.964005,2.399994c-0.219757,0.873505 0.088013,1.808609 -0.036163,2.699844c-0.111725,0.801865 -0.971237,1.255875 -0.999832,2.100159c-0.030472,0.89949 0,1.800003 0,2.600006c0,0.899994 0,1.800003 0,2.699997c0,0.899994 -0.194901,1.821686 0.001328,2.698669c0.180573,0.807037 0.836945,1.421249 1.364838,2.101334c0.481659,0.620529 1.407578,0.891144 2.154663,1.220825c0.801392,0.353638 1.806442,0.948944 2.243179,1.31517c0.651062,0.545959 1.426788,1.373337 2.035995,1.953339c0.591217,0.562866 1.412582,1.170105 2.158325,1.689835c0.721313,0.502716 1.03717,1.220795 1.041672,2.120834c0.004501,0.899979 0.000671,1.799988 0,2.699997c-0.000671,0.899994 -0.289703,1.756897 -0.647339,2.399994c-0.474426,0.853119 -0.880081,1.645737 -1.268661,2.5c-0.347122,0.763123 -0.729263,1.500916 -1.084,2.300003c-0.359558,0.809937 -0.900986,1.460159 -1.483994,2.269333c-0.350052,0.48584 -0.889465,1.266891 -1.494339,2.309174c-0.392197,0.675812 -0.746964,1.296997 -0.93634,2.32016c-0.139954,0.756119 -0.00148,1.868713 -0.251999,2.768005c-0.192566,0.691254 -0.597855,1.424652 -0.780655,2.433334c-0.143875,0.793961 -0.316315,1.80896 -0.573502,2.399994c-0.442444,1.016785 -0.767487,1.862289 -1.279175,2.429337c-0.644775,0.714539 -1.197739,1.275146 -1.199997,2.206665c-0.002045,0.847992 0,1.711334 0,2.606827c0,0.957169 0,1.857346 0,2.642502c0,0.950668 0,1.716003 0,2.710175c0,0.74733 -0.260986,1.807114 0.004501,2.699997c0.226776,0.762665 1.44519,0.530701 1.970169,1.140503c0.616455,0.71608 1.025574,1.563751 1.52533,2.063995c0.700333,0.701004 1.230728,1.237335 1.800003,2.152679c0.423325,0.680664 0.846603,1.519806 1.457169,2.042816c0.673096,0.576569 1.500351,0.903229 2.076157,1.637848c0.491653,0.627258 0.778854,1.494019 1.050674,2.069336c0.57132,1.20929 0.958115,1.771912 1.406158,2.640167c0.40152,0.778076 0.57341,1.748474 0.877838,2.555817c0.315796,0.837494 0.846512,1.386566 1.665329,2.23468c0.516052,0.534515 1.025421,1.374634 1.166672,2.166656c0.159119,0.892212 1.092514,1.452454 0.953339,2.149323c-0.185196,0.927277 -0.609604,1.540924 -0.974167,2.329834c-0.356308,0.771027 -0.972717,1.304962 -1.336334,2.173523c-0.299911,0.7164 -0.935654,1.400208 -1.357498,2.145996c-0.486252,0.85965 -1.08667,1.200653 -1.985336,1.201324c-0.900009,0.000671 -1.820831,0 -2.783997,0c-0.690674,0 -2.022903,-0.299072 -2.458847,0.357178c-0.468109,0.704681 0.068069,1.828369 0.389511,2.478821c0.391113,0.791412 1.037323,1.563995 1.553329,2.164001c0.516006,0.600006 1.175308,1.366241 1.553329,2.164001c0.435486,0.919067 0.012405,2.06842 0.613342,2.669342c0.600922,0.600922 1.763672,-0.226257 2.547989,0.251984c0.803543,0.48996 1.411224,0.723663 1.985336,0.210175c0.630096,-0.563538 1.341293,-1.258942 1.900009,-1.931488c0.542038,-0.652466 0.949738,-1.338074 1.278656,-2.342499c0.263123,-0.803528 0.807541,-1.443878 1.064178,-2.321503c0.253128,-0.865601 0.057159,-1.800018 0.057159,-2.700012l0,-0.799988" id="svg_2" stroke-linecap="null" stroke-linejoin="null" stroke-dasharray="null" stroke-width="5" stroke="#000000" fill="none"/>
  <path d="m237,151c1.600006,0.610672 2.300003,1.300003 2.800003,1.800003c0.699997,0.699997 1.398666,1.399994 1.914658,2l0.274673,0.800003l-0.02533,0.963989" id="svg_3" stroke-linecap="null" stroke-linejoin="null" stroke-dasharray="null" stroke-width="5" stroke="#000000" fill="none"/>
 </g>
</svg>