<svg width="640" height="480" xmlns="http://www.w3.org/2000/svg" xmlns:svg="http://www.w3.org/2000/svg">
 <!-- Created with SVG-edit - http://svg-edit.googlecode.com/ -->
 <g>
  <line stroke="#000000" id="svg_1" y2="178" x2="99" y1="193" x1="90" stroke-linecap="null" stroke-linejoin="null" stroke-dasharray="null" stroke-width="5" fill="none"/>
  <line id="svg_2" y2="177" x2="139" y1="177" x1="99" stroke-linecap="null" stroke-linejoin="null" stroke-dasharray="null" stroke-width="5" stroke="#000000" fill="none"/>
  <line id="svg_3" y2="176" x2="136" y1="188" x1="147" stroke-linecap="null" stroke-linejoin="null" stroke-dasharray="null" stroke-width="5" stroke="#000000" fill="none"/>
  <line id="svg_5" y2="182" x2="161" y1="186" x1="145" stroke-linecap="null" stroke-linejoin="null" stroke-dasharray="null" stroke-width="5" stroke="#000000" fill="none"/>
  <line id="svg_8" y2="187" x2="172" y1="180" x1="159" stroke-linecap="null" stroke-linejoin="null" stroke-dasharray="null" stroke-width="5" stroke="#000000" fill="none"/>
  <line id="svg_9" y2="190" x2="173" y1="183" x1="202" stroke-linecap="null" stroke-linejoin="null" stroke-dasharray="null" stroke-width="5" stroke="#000000" fill="none"/>
  <line id="svg_10" y2="183" x2="200" y1="187" x1="218" stroke-linecap="null" stroke-linejoin="null" stroke-dasharray="null" stroke-width="5" stroke="#000000" fill="none"/>
  <line transform="rotate(-16.189207077026367 219.99999999999997,183.99999999999986) " id="svg_11" y2="189" x2="213" y1="179" x1="227" stroke-linecap="null" stroke-linejoin="null" stroke-dasharray="null" stroke-width="5" stroke="#000000" fill="none"/>
  <line id="svg_12" y2="187" x2="170" y1="191" x1="176" stroke-linecap="null" stroke-linejoin="null" stroke-dasharray="null" stroke-width="5" stroke="#000000" fill="none"/>
  <line stroke="#000000" id="svg_13" y2="187" x2="217" y1="186" x1="210" stroke-linecap="null" stroke-linejoin="null" stroke-dasharray="null" stroke-width="5" fill="none"/>
  <line id="svg_14" y2="179" x2="222" y1="170" x1="242" stroke-linecap="null" stroke-linejoin="null" stroke-dasharray="null" stroke-width="5" stroke="#000000" fill="none"/>
  <line id="svg_15" y2="170" x2="242" y1="177" x1="258" stroke-linecap="null" stroke-linejoin="null" stroke-dasharray="null" stroke-width="5" stroke="#000000" fill="none"/>
  <line id="svg_16" y2="178" x2="255" y1="188" x1="262" stroke-linecap="null" stroke-linejoin="null" stroke-dasharray="null" stroke-width="5" stroke="#000000" fill="none"/>
  <line id="svg_17" y2="187" x2="262" y1="179" x1="276" stroke-linecap="null" stroke-linejoin="null" stroke-dasharray="null" stroke-width="5" stroke="#000000" fill="none"/>
  <line id="svg_18" y2="180" x2="272" y1="184" x1="289" stroke-linecap="null" stroke-linejoin="null" stroke-dasharray="null" stroke-width="5" stroke="#000000" fill="none"/>
  <line stroke="#000000" id="svg_21" y2="185" x2="293" y1="191" x1="306" stroke-linecap="null" stroke-linejoin="null" stroke-dasharray="null" stroke-width="5" fill="none"/>
  <line id="svg_22" y2="185" x2="293" y1="183" x1="285" stroke-linecap="null" stroke-linejoin="null" stroke-dasharray="null" stroke-width="5" stroke="#000000" fill="none"/>
  <line stroke="#000000" id="svg_23" y2="191" x2="306" y1="184" x1="323" stroke-linecap="null" stroke-linejoin="null" stroke-dasharray="null" stroke-width="5" fill="none"/>
  <line stroke="#000000" id="svg_24" y2="184" x2="293" y1="184" x1="292" stroke-linecap="null" stroke-linejoin="null" stroke-dasharray="null" stroke-width="5" fill="none"/>
  <line stroke="#000000" id="svg_25" y2="184" x2="319" y1="187" x1="336.999999" stroke-linecap="null" stroke-linejoin="null" stroke-dasharray="null" stroke-width="5" fill="none"/>
  <line stroke="#000000" id="svg_26" y2="188" x2="336" y1="185" x1="360" stroke-linecap="null" stroke-linejoin="null" stroke-dasharray="null" stroke-width="5" fill="none"/>
  <line stroke="#000000" id="svg_27" y2="186" x2="360" y1="174" x1="370" stroke-linecap="null" stroke-linejoin="null" stroke-dasharray="null" stroke-width="5" fill="none"/>
  <line id="svg_28" y2="175" x2="368" y1="171" x1="387" stroke-linecap="null" stroke-linejoin="null" stroke-dasharray="null" stroke-width="5" stroke="#000000" fill="none"/>
  <line id="svg_29" y2="171" x2="387" y1="176" x1="403" stroke-linecap="null" stroke-linejoin="null" stroke-dasharray="null" stroke-width="5" stroke="#000000" fill="none"/>
  <line stroke="#000000" id="svg_30" y2="181" x2="415" y1="191" x1="419" stroke-linecap="null" stroke-linejoin="null" stroke-dasharray="null" stroke-width="5" fill="none"/>
  <line id="svg_31" y2="182" x2="415" y1="175" x1="399" stroke-linecap="null" stroke-linejoin="null" stroke-dasharray="null" stroke-width="5" stroke="#000000" fill="none"/>
  <line id="svg_32" y2="189" x2="418" y1="203" x1="419" stroke-linecap="null" stroke-linejoin="null" stroke-dasharray="null" stroke-width="5" stroke="#000000" fill="none"/>
  <line stroke="#000000" id="svg_33" y2="200.000001" x2="420" y1="227" x1="410" stroke-linecap="null" stroke-linejoin="null" stroke-dasharray="null" stroke-width="5" fill="none"/>
  <line id="svg_34" y2="232" x2="418" y1="251" x1="410" stroke-linecap="null" stroke-linejoin="null" stroke-dasharray="null" stroke-width="5" stroke="#000000" fill="none"/>
  <line id="svg_35" y2="216" x2="92" y1="190" x1="90" stroke-linecap="null" stroke-linejoin="null" stroke-dasharray="null" stroke-width="5" stroke="#000000" fill="none"/>
  <line id="svg_36" y2="236" x2="419" y1="226" x1="407" stroke-linecap="null" stroke-linejoin="null" stroke-dasharray="null" stroke-width="5" stroke="#000000" fill="none"/>
  <line stroke="#000000" id="svg_37" y2="256" x2="394" y1="250" x1="410" stroke-linecap="null" stroke-linejoin="null" stroke-dasharray="null" stroke-width="5" fill="none"/>
  <line id="svg_38" y2="253" x2="356" y1="257" x1="394" stroke-linecap="null" stroke-linejoin="null" stroke-dasharray="null" stroke-width="5" stroke="#000000" fill="none"/>
  <line stroke="#000000" id="svg_39" y2="261" x2="351" y1="258" x1="330" stroke-linecap="null" stroke-linejoin="null" stroke-dasharray="null" stroke-width="5" fill="none"/>
  <line id="svg_40" y2="258" x2="307" y1="261" x1="276" stroke-linecap="null" stroke-linejoin="null" stroke-dasharray="null" stroke-width="5" stroke="#000000" fill="none"/>
  <line id="svg_41" y2="254" x2="265" y1="260" x1="247" stroke-linecap="null" stroke-linejoin="null" stroke-dasharray="null" stroke-width="5" stroke="#000000" fill="none"/>
  <line id="svg_42" y2="231" x2="88" y1="215" x1="92" stroke-linecap="null" stroke-linejoin="null" stroke-dasharray="null" stroke-width="5" stroke="#000000" fill="none"/>
  <line id="svg_43" y2="263" x2="350" y1="252" x1="357" stroke-linecap="null" stroke-linejoin="null" stroke-dasharray="null" stroke-width="5" stroke="#000000" fill="none"/>
  <line id="svg_44" y2="261" x2="277" y1="251" x1="262" stroke-linecap="null" stroke-linejoin="null" stroke-dasharray="null" stroke-width="5" stroke="#000000" fill="none"/>
  <line id="svg_45" y2="253" x2="221" y1="260" x1="249" stroke-linecap="null" stroke-linejoin="null" stroke-dasharray="null" stroke-width="5" stroke="#000000" fill="none"/>
  <line id="svg_46" y2="255" x2="101" y1="232" x1="86" stroke-linecap="null" stroke-linejoin="null" stroke-dasharray="null" stroke-width="5" stroke="#000000" fill="none"/>
  <line id="svg_47" y2="259" x2="183" y1="253" x1="222" stroke-linecap="null" stroke-linejoin="null" stroke-dasharray="null" stroke-width="5" stroke="#000000" fill="none"/>
  <line id="svg_48" y2="250" x2="115" y1="254" x1="100" stroke-linecap="null" stroke-linejoin="null" stroke-dasharray="null" stroke-width="5" stroke="#000000" fill="none"/>
  <line id="svg_49" y2="249" x2="167" y1="258" x1="184" stroke-linecap="null" stroke-linejoin="null" stroke-dasharray="null" stroke-width="5" stroke="#000000" fill="none"/>
  <line id="svg_50" y2="256" x2="124" y1="249" x1="114" stroke-linecap="null" stroke-linejoin="null" stroke-dasharray="null" stroke-width="5" stroke="#000000" fill="none"/>
  <line id="svg_51" y2="249" x2="167" y1="250" x1="150" stroke-linecap="null" stroke-linejoin="null" stroke-dasharray="null" stroke-width="5" stroke="#000000" fill="none"/>
  <line id="svg_52" y2="244" x2="141" y1="254" x1="127" stroke-linecap="null" stroke-linejoin="null" stroke-dasharray="null" stroke-width="5" stroke="#000000" fill="none"/>
  <line stroke="#000000" id="svg_53" y2="257" x2="124" y1="247" x1="132" stroke-linecap="null" stroke-linejoin="null" stroke-dasharray="null" stroke-width="5" fill="none"/>
  <path stroke="#000000" d="m138,244c1.261343,1.166672 2.061211,1.514069 3.027215,1.985336c1.066337,0.520218 1.517977,1.27832 2.438598,1.847992c0.778678,0.481827 1.935358,0.544388 2.904037,1.266678c0.762453,0.568527 1.294197,1.37915 2.211969,1.874664c0.839805,0.45343 1.540534,1.014664 2.662281,1.02533l1.235071,-0.020828" id="svg_54" stroke-linecap="null" stroke-linejoin="null" stroke-dasharray="null" stroke-width="5" fill="none"/>
  <line stroke="#000000" id="svg_55" y2="249" x2="320" y1="257" x1="305" stroke-linecap="null" stroke-linejoin="null" stroke-dasharray="null" stroke-width="5" fill="none"/>
  <line id="svg_56" y2="250" x2="319" y1="256" x1="330" stroke-linecap="null" stroke-linejoin="null" stroke-dasharray="null" stroke-width="5" stroke="#000000" fill="none"/>
 </g>
</svg>